<?xml version="1.0" encoding="UTF-8"?>
<svg id="Calque_1" xmlns="http://www.w3.org/2000/svg" version="1.1" viewBox="0 0 200 200">
  <!-- Generator: Adobe Illustrator 29.6.0, SVG Export Plug-In . SVG Version: 2.1.1 Build 207)  -->
  <path d="M54.15,90.48h-9.18V17.01c0-5.07-4.11-9.18-9.18-9.18s-9.18,4.11-9.18,9.18v73.47h-9.18c-5.07,0-9.18,4.11-9.18,9.18s4.11,9.18,9.18,9.18h9.18v73.47c0,5.07,4.11,9.18,9.18,9.18s9.18-4.11,9.18-9.18v-73.47h9.18c5.07,0,9.18-4.11,9.18-9.18s-4.11-9.18-9.18-9.18Z"/>
  <path d="M118.43,136.39h-9.18V17.01c0-5.07-4.11-9.18-9.18-9.18s-9.18,4.11-9.18,9.18v119.38h-9.18c-5.07,0-9.18,4.11-9.18,9.18s4.11,9.18,9.18,9.18h9.18v27.55c0,5.07,4.11,9.18,9.18,9.18s9.18-4.11,9.18-9.18v-27.55h9.18c5.07,0,9.18-4.11,9.18-9.18s-4.11-9.18-9.18-9.18Z"/>
  <path d="M182.71,44.56h-9.18v-27.55c0-5.07-4.11-9.18-9.18-9.18s-9.18,4.11-9.18,9.18v27.55h-9.18c-5.07,0-9.18,4.11-9.18,9.18s4.11,9.18,9.18,9.18h9.18v119.38c0,5.07,4.11,9.18,9.18,9.18s9.18-4.11,9.18-9.18V62.93h9.18c5.07,0,9.18-4.11,9.18-9.18s-4.11-9.18-9.18-9.18Z"/>
</svg>